HIERARCHY
ROOT Hips
{
 OFFSET 0.000000 0.000000 0.000000
 CHANNELS 6 Xposition Yposition Zposition Yrotation Xrotation Zrotation
 JOINT Chest
 {
  OFFSET 0.000000 9.585900 0.002600
  CHANNELS 3 Yrotation Xrotation Zrotation
  JOINT Chest2
  {
   OFFSET 0.000000 9.601200 -0.005300
   CHANNELS 3 Yrotation Xrotation Zrotation
   JOINT Chest3
   {
    OFFSET 0.000000 9.561800 0.000000
    CHANNELS 3 Yrotation Xrotation Zrotation
    JOINT Chest4
    {
     OFFSET 0.000000 9.552100 0.000000
     CHANNELS 3 Yrotation Xrotation Zrotation
     JOINT Neck
     {
      OFFSET 0.000000 14.453000 0.000000
      CHANNELS 3 Yrotation Xrotation Zrotation
      JOINT Head
      {
       OFFSET 0.000000 8.936500 -0.011300
       CHANNELS 3 Yrotation Xrotation Zrotation
       End Site
       {
        OFFSET 0.000000 17.073600 -0.006000
       }
      }
     }
     JOINT RightCollar
     {
      OFFSET -2.921100 9.558500 0.000000
      CHANNELS 3 Yrotation Xrotation Zrotation
      JOINT RightShoulder
      {
       OFFSET -13.519700 0.000000 0.000000
       CHANNELS 3 Yrotation Xrotation Zrotation
       JOINT RightElbow
       {
        OFFSET 0.000000 -29.696600 0.000000
        CHANNELS 3 Yrotation Xrotation Zrotation
        JOINT RightWrist
        {
         OFFSET 0.000000 -24.004700 0.000000
         CHANNELS 3 Yrotation Xrotation Zrotation
         End Site
         {
          OFFSET 0.000000 -17.728500 0.000000
         }
        }
       }
      }
     }
     JOINT LeftCollar
     {
      OFFSET 2.921100 9.558500 0.000000
      CHANNELS 3 Yrotation Xrotation Zrotation
      JOINT LeftShoulder
      {
       OFFSET 13.519700 0.000000 0.000000
       CHANNELS 3 Yrotation Xrotation Zrotation
       JOINT LeftElbow
       {
        OFFSET 0.000000 -29.696600 0.000000
        CHANNELS 3 Yrotation Xrotation Zrotation
        JOINT LeftWrist
        {
         OFFSET 0.000000 -24.004700 0.000000
         CHANNELS 3 Yrotation Xrotation Zrotation
         End Site
         {
          OFFSET 0.000000 -17.728500 0.000000
         }
        }
       }
      }
     }
    }
   }
  }
 }
 JOINT RightHip
 {
  OFFSET -7.771700 -0.012900 -0.001300
  CHANNELS 3 Yrotation Xrotation Zrotation
  JOINT RightKnee
  {
   OFFSET 0.000000 -40.869800 0.001200
   CHANNELS 3 Yrotation Xrotation Zrotation
   JOINT RightAnkle
   {
    OFFSET 0.000000 -39.717900 0.002100
    CHANNELS 3 Yrotation Xrotation Zrotation
    JOINT RightToe
    {
     OFFSET 0.000000 -4.965400 11.033500
     CHANNELS 3 Yrotation Xrotation Zrotation
     End Site
     {
      OFFSET 0.000000 -1.423100 5.872300
     }
    }
   }
  }
 }
 JOINT LeftHip
 {
  OFFSET 7.771700 -0.012900 -0.001300
  CHANNELS 3 Yrotation Xrotation Zrotation
  JOINT LeftKnee
  {
   OFFSET 0.000000 -40.869800 0.001200
   CHANNELS 3 Yrotation Xrotation Zrotation
   JOINT LeftAnkle
   {
    OFFSET 0.000000 -39.717900 0.002100
    CHANNELS 3 Yrotation Xrotation Zrotation
    JOINT LeftToe
    {
     OFFSET 0.000000 -4.965400 11.033500
     CHANNELS 3 Yrotation Xrotation Zrotation
     End Site
     {
      OFFSET 0.000000 -1.423100 5.872300
     }
    }
   }
  }
 }
}
MOTION
Frames: 5
Frame Time: 0.008333
0.000000 85.388000 0.000000 0.000000 -5.767877 0.000000 0.000000 11.653817 0.000000 0.000000 -5.885947 0.000000 0.000000 -0.000000 0.000000 0.000000 -0.000000 0.000000 0.000000 12.528835 0.000000 0.000000 0.711642 0.000000 0.000000 -0.000000 0.000000 0.000000 0.000000 -90.000000 0.000000 -2.309062 0.000000 0.000000 2.309062 0.000000 0.000000 -0.000000 0.000000 0.000000 -0.000000 90.000000 0.000000 -2.309062 0.000000 0.000000 2.309062 0.000000 0.000000 8.520406 0.000000 0.000000 1.905762 0.000000 -0.000000 -4.658285 0.000000 0.000000 -0.000000 0.000000 0.000000 8.520406 0.000000 0.000000 1.905762 0.000000 -0.000000 -4.658285 0.000000 0.000000 -0.000000 0.000000
-31.299742 50.676545 19.800169 164.993336 -5.714061 -0.363842 2.342427 6.268980 0.371813 0.086880 0.250910 -0.019460 0.150723 0.436088 -0.033126 2.064115 6.013810 -0.361539 2.411696 18.462343 0.397143 4.301126 -1.480751 -0.046927 2.360629 6.090132 -0.079391 -8.385370 -9.182382 -7.224986 -38.143198 -87.681244 59.410029 -1.918897 -4.145759 -35.991773 -4.443103 1.685114 0.202242 19.708791 -4.374772 2.735654 62.822402 -75.580180 -89.271790 4.010199 -1.148219 23.703703 -18.493934 -73.335737 8.106023 -145.367165 82.983359 -142.177951 -3.078286 -17.583362 -3.974005 -0.222894 0.634967 -0.126225 -5.704876 -79.150716 24.088635 101.787579 77.227907 97.976474 -13.463802 -26.332995 -0.885566 -0.360108 -1.170211 -0.173550
-31.300817 50.676243 19.804240 164.997593 -5.697628 -0.355313 2.332675 6.242885 0.363045 0.086993 0.250696 -0.019323 0.152853 0.441073 -0.033911 2.058665 5.986112 -0.358461 2.418069 18.507591 0.390920 4.311639 -1.404898 -0.058451 2.342566 6.142574 -0.081683 -8.367881 -9.148950 -7.217718 -37.750140 -87.677415 58.999525 -1.920830 -4.112279 -35.999558 -4.432309 1.725688 0.201751 19.698775 -4.340493 2.726538 62.586840 -75.569147 -89.006331 4.005097 -1.126500 23.719361 -18.514427 -73.355560 8.115093 -145.339565 82.982230 -142.150152 -3.074624 -17.580487 -3.976322 -0.217245 0.635131 -0.127431 -5.685800 -79.168521 24.070492 101.743561 77.212702 97.925444 -13.508948 -26.299214 -0.877642 -0.376236 -1.190601 -0.171712
-31.298913 50.676166 19.806146 164.995925 -5.700338 -0.358900 2.330267 6.232126 0.367831 0.086878 0.250240 -0.019271 0.152752 0.440299 -0.033595 2.057449 5.986166 -0.359875 2.422558 18.528835 0.388046 4.324181 -1.353790 -0.067320 2.334735 6.166022 -0.080708 -8.358227 -9.106951 -7.208425 -37.351251 -87.679988 58.585475 -1.923337 -4.081484 -36.011923 -4.421747 1.758102 0.213481 19.689668 -4.316463 2.709214 62.373548 -75.561123 -88.765754 4.001711 -1.108734 23.730896 -18.540337 -73.352271 8.139206 -145.354744 82.982533 -142.168081 -3.064968 -17.576497 -3.968352 -0.221500 0.632887 -0.126759 -5.716482 -79.165358 24.105832 101.719783 77.207339 97.896786 -13.509240 -26.276697 -0.881015 -0.392790 -1.201241 -0.170989
-31.296329 50.675981 19.808193 164.996926 -5.704969 -0.366263 2.321054 6.207895 0.377576 0.087844 0.264799 -0.021576 0.152522 0.439591 -0.033758 2.063111 5.979232 -0.360168 2.424585 18.552512 0.387466 4.331512 -1.329811 -0.072030 2.323884 6.196233 -0.079002 -8.343351 -9.066001 -7.211140 -37.205910 -87.681671 58.425579 -1.921212 -4.090821 -36.016709 -4.413061 1.787704 0.217851 19.683209 -4.290009 2.701999 62.231750 -75.558153 -88.611107 4.004359 -1.080507 23.747866 -18.565368 -73.345131 8.160055 -145.332954 82.979965 -142.138877 -3.057457 -17.576290 -3.976502 -0.216784 0.631302 -0.123063 -5.759245 -79.159934 24.149767 101.691681 77.203428 97.864562 -13.503125 -26.258343 -0.882529 -0.387376 -1.204990 -0.169410
